<svg width="188" height="75" viewBox="0 0 188 75" fill="none" xmlns="http://www.w3.org/2000/svg">
<path d="M12.1572 29.6822V7.78519H17.3856V16.0714H17.4925C17.7064 15.5725 18.0093 15.0913 18.4013 14.628C18.8005 14.1647 19.3066 13.7869 19.9196 13.4947C20.5397 13.1953 21.281 13.0456 22.1435 13.0456C23.284 13.0456 24.3496 13.345 25.3404 13.9437C26.3383 14.5425 27.1437 15.4655 27.7568 16.7129C28.3698 17.9603 28.6763 19.5499 28.6763 21.4815C28.6763 23.3419 28.3804 24.8994 27.7888 26.1539C27.2043 27.4084 26.4131 28.3493 25.4152 28.9766C24.4244 29.6038 23.3232 29.9175 22.1114 29.9175C21.2846 29.9175 20.5682 29.782 19.9623 29.5112C19.3565 29.2403 18.8468 28.8839 18.4334 28.442C18.0271 28 17.7135 27.526 17.4925 27.0199H17.3321V29.6822H12.1572ZM17.2787 21.4708C17.2787 22.3547 17.3963 23.1245 17.6315 23.7803C17.8739 24.4361 18.2196 24.9457 18.6686 25.3092C19.1248 25.6656 19.6701 25.8438 20.3045 25.8438C20.946 25.8438 21.4913 25.6656 21.9403 25.3092C22.3894 24.9457 22.728 24.4361 22.9561 23.7803C23.1913 23.1245 23.3089 22.3547 23.3089 21.4708C23.3089 20.587 23.1913 19.8207 22.9561 19.1721C22.728 18.5234 22.3894 18.0209 21.9403 17.6645C21.4984 17.3081 20.9531 17.1299 20.3045 17.1299C19.663 17.1299 19.1177 17.3046 18.6686 17.6538C18.2196 18.0031 17.8739 18.502 17.6315 19.1507C17.3963 19.7993 17.2787 20.5727 17.2787 21.4708ZM36.9489 29.9602C35.9011 29.9602 34.9709 29.7856 34.1583 29.4363C33.3529 29.0799 32.7149 28.5453 32.2445 27.8325C31.7812 27.1126 31.5495 26.2109 31.5495 25.1275C31.5495 24.2151 31.7099 23.4453 32.0306 22.818C32.3514 22.1908 32.7933 21.6811 33.3564 21.2891C33.9195 20.897 34.5682 20.6012 35.3024 20.4016C36.0365 20.1949 36.8206 20.0559 37.6546 19.9847C38.5883 19.8991 39.3403 19.81 39.9106 19.7174C40.4808 19.6176 40.8942 19.4786 41.1508 19.3004C41.4146 19.1151 41.5464 18.8549 41.5464 18.5199V18.4664C41.5464 17.9176 41.3575 17.4934 40.9798 17.1941C40.602 16.8947 40.0923 16.745 39.4508 16.745C38.7594 16.745 38.2034 16.8947 37.7829 17.1941C37.3623 17.4934 37.095 17.9069 36.981 18.4343L32.1589 18.2633C32.3015 17.2654 32.6686 16.3744 33.2602 15.5903C33.8589 14.7991 34.6787 14.179 35.7193 13.7299C36.7671 13.2737 38.0252 13.0456 39.4936 13.0456C40.5414 13.0456 41.5072 13.1703 42.3911 13.4198C43.275 13.6622 44.0448 14.0186 44.7005 14.489C45.3563 14.9523 45.8624 15.5226 46.2188 16.1997C46.5823 16.8769 46.7641 17.6503 46.7641 18.5199V29.6822H41.8458V27.3942H41.7175C41.4253 27.9501 41.051 28.4206 40.5949 28.8055C40.1458 29.1904 39.6148 29.4791 39.0018 29.6715C38.3959 29.864 37.7116 29.9602 36.9489 29.9602ZM38.5634 26.5388C39.1265 26.5388 39.6326 26.4248 40.0816 26.1967C40.5378 25.9686 40.9014 25.6549 41.1722 25.2558C41.4431 24.8495 41.5785 24.379 41.5785 23.8444V22.2834C41.4288 22.3618 41.2471 22.4331 41.0332 22.4973C40.8265 22.5614 40.5984 22.622 40.3489 22.679C40.0995 22.736 39.8429 22.7859 39.5791 22.8287C39.3154 22.8715 39.0623 22.9107 38.82 22.9463C38.3282 23.0247 37.9076 23.1459 37.5583 23.3098C37.2162 23.4738 36.9525 23.6876 36.7671 23.9514C36.5889 24.208 36.4998 24.5145 36.4998 24.8709C36.4998 25.4126 36.6923 25.826 37.0772 26.1111C37.4692 26.3962 37.9646 26.5388 38.5634 26.5388ZM50.8642 29.6822V13.2594H55.9429V16.2532H56.114C56.4133 15.1697 56.9016 14.3643 57.5787 13.8368C58.2559 13.3022 59.0435 13.0349 59.9417 13.0349C60.184 13.0349 60.4335 13.0527 60.6901 13.0884C60.9467 13.1169 61.1855 13.1632 61.4064 13.2274V17.7714C61.157 17.6859 60.8291 17.6182 60.4228 17.5683C60.0236 17.5184 59.6672 17.4934 59.3536 17.4934C58.7335 17.4934 58.1739 17.6324 57.675 17.9104C57.1831 18.1813 56.7947 18.5626 56.5096 19.0545C56.2316 19.5392 56.0926 20.1094 56.0926 20.7652V29.6822H50.8642ZM71.2642 29.9923C69.5463 29.9923 68.0637 29.6537 66.8163 28.9766C65.5761 28.2923 64.6209 27.3193 63.9509 26.0577C63.288 24.7889 62.9566 23.2813 62.9566 21.535C62.9566 19.8385 63.2916 18.3559 63.9616 17.0872C64.6316 15.8113 65.5761 14.8205 66.795 14.1148C68.0138 13.402 69.4501 13.0456 71.1038 13.0456C72.2728 13.0456 73.342 13.2274 74.3114 13.5909C75.2808 13.9544 76.1183 14.4926 76.824 15.2054C77.5296 15.9182 78.0785 16.7985 78.4705 17.8463C78.8626 18.887 79.0586 20.0809 79.0586 21.4281V22.7325H64.7849V19.696H74.1938C74.1866 19.14 74.0548 18.6446 73.7982 18.2098C73.5416 17.775 73.1887 17.4364 72.7397 17.1941C72.2977 16.9446 71.7881 16.8199 71.2107 16.8199C70.6262 16.8199 70.1023 16.9517 69.639 17.2155C69.1757 17.4721 68.8086 17.8249 68.5377 18.274C68.2669 18.7159 68.1243 19.2184 68.1101 19.7815V22.8715C68.1101 23.5415 68.2419 24.1296 68.5057 24.6356C68.7694 25.1346 69.1436 25.5231 69.6283 25.8011C70.113 26.0791 70.6904 26.218 71.3604 26.218C71.8237 26.218 72.2443 26.1539 72.6221 26.0256C72.9998 25.8973 73.3242 25.7084 73.595 25.4589C73.8659 25.2094 74.069 24.9029 74.2045 24.5394L79.0051 24.6784C78.8055 25.7547 78.3672 26.6921 77.69 27.4904C77.02 28.2816 76.1397 28.8982 75.0491 29.3401C73.9585 29.7749 72.6969 29.9923 71.2642 29.9923ZM82.6321 29.6822V7.78519H87.8605V16.0714H87.9674C88.1812 15.5725 88.4842 15.0913 88.8762 14.628C89.2754 14.1647 89.7815 13.7869 90.3945 13.4947C91.0146 13.1953 91.7559 13.0456 92.6184 13.0456C93.7589 13.0456 94.8245 13.345 95.8153 13.9437C96.8132 14.5425 97.6186 15.4655 98.2316 16.7129C98.8447 17.9603 99.1512 19.5499 99.1512 21.4815C99.1512 23.3419 98.8553 24.8994 98.2637 26.1539C97.6792 27.4084 96.888 28.3493 95.8901 28.9766C94.8993 29.6038 93.7981 29.9175 92.5863 29.9175C91.7595 29.9175 91.0431 29.782 90.4372 29.5112C89.8314 29.2403 89.3217 28.8839 88.9083 28.442C88.502 28 88.1884 27.526 87.9674 27.0199H87.807V29.6822H82.6321ZM87.7536 21.4708C87.7536 22.3547 87.8712 23.1245 88.1064 23.7803C88.3488 24.4361 88.6945 24.9457 89.1435 25.3092C89.5997 25.6656 90.145 25.8438 90.7794 25.8438C91.4209 25.8438 91.9662 25.6656 92.4152 25.3092C92.8643 24.9457 93.2029 24.4361 93.431 23.7803C93.6662 23.1245 93.7838 22.3547 93.7838 21.4708C93.7838 20.587 93.6662 19.8207 93.431 19.1721C93.2029 18.5234 92.8643 18.0209 92.4152 17.6645C91.9733 17.3081 91.428 17.1299 90.7794 17.1299C90.1379 17.1299 89.5926 17.3046 89.1435 17.6538C88.6945 18.0031 88.3488 18.502 88.1064 19.1507C87.8712 19.7993 87.7536 20.5727 87.7536 21.4708ZM110.46 29.9923C108.735 29.9923 107.253 29.6395 106.012 28.9338C104.779 28.221 103.828 27.2302 103.158 25.9614C102.495 24.6855 102.163 23.2065 102.163 21.5243C102.163 19.835 102.495 18.3559 103.158 17.0872C103.828 15.8113 104.779 14.8205 106.012 14.1148C107.253 13.402 108.735 13.0456 110.46 13.0456C112.185 13.0456 113.664 13.402 114.897 14.1148C116.138 14.8205 117.089 15.8113 117.752 17.0872C118.422 18.3559 118.757 19.835 118.757 21.5243C118.757 23.2065 118.422 24.6855 117.752 25.9614C117.089 27.2302 116.138 28.221 114.897 28.9338C113.664 29.6395 112.185 29.9923 110.46 29.9923ZM110.492 26.047C111.12 26.047 111.651 25.8545 112.085 25.4696C112.52 25.0847 112.852 24.5501 113.08 23.8658C113.315 23.1815 113.433 22.3903 113.433 21.4922C113.433 20.5798 113.315 19.7815 113.08 19.0972C112.852 18.413 112.52 17.8784 112.085 17.4934C111.651 17.1085 111.12 16.9161 110.492 16.9161C109.844 16.9161 109.295 17.1085 108.846 17.4934C108.404 17.8784 108.065 18.413 107.83 19.0972C107.602 19.7815 107.488 20.5798 107.488 21.4922C107.488 22.3903 107.602 23.1815 107.83 23.8658C108.065 24.5501 108.404 25.0847 108.846 25.4696C109.295 25.8545 109.844 26.047 110.492 26.047ZM127.567 20.3161V29.6822H122.339V13.2594H127.311V16.2746H127.492C127.856 15.2695 128.476 14.4819 129.353 13.9117C130.229 13.3343 131.274 13.0456 132.485 13.0456C133.64 13.0456 134.642 13.3058 135.49 13.8261C136.345 14.3393 137.008 15.0593 137.479 15.9859C137.956 16.9054 138.191 17.9817 138.184 19.2148V29.6822H132.956V20.2413C132.963 19.3289 132.731 18.6161 132.261 18.1029C131.798 17.5897 131.153 17.3331 130.326 17.3331C129.777 17.3331 129.292 17.4542 128.872 17.6966C128.458 17.9318 128.137 18.2704 127.909 18.7123C127.688 19.1543 127.574 19.6889 127.567 20.3161ZM150.001 29.9923C148.283 29.9923 146.801 29.6537 145.553 28.9766C144.313 28.2923 143.358 27.3193 142.688 26.0577C142.025 24.7889 141.694 23.2813 141.694 21.535C141.694 19.8385 142.029 18.3559 142.699 17.0872C143.369 15.8113 144.313 14.8205 145.532 14.1148C146.751 13.402 148.187 13.0456 149.841 13.0456C151.01 13.0456 152.079 13.2274 153.048 13.5909C154.018 13.9544 154.855 14.4926 155.561 15.2054C156.267 15.9182 156.816 16.7985 157.208 17.8463C157.6 18.887 157.796 20.0809 157.796 21.4281V22.7325H143.522V19.696H152.931C152.924 19.14 152.792 18.6446 152.535 18.2098C152.279 17.775 151.926 17.4364 151.477 17.1941C151.035 16.9446 150.525 16.8199 149.948 16.8199C149.363 16.8199 148.839 16.9517 148.376 17.2155C147.913 17.4721 147.546 17.8249 147.275 18.274C147.004 18.7159 146.861 19.2184 146.847 19.7815V22.8715C146.847 23.5415 146.979 24.1296 147.243 24.6356C147.506 25.1346 147.881 25.5231 148.365 25.8011C148.85 26.0791 149.427 26.218 150.097 26.218C150.561 26.218 150.981 26.1539 151.359 26.0256C151.737 25.8973 152.061 25.7084 152.332 25.4589C152.603 25.2094 152.806 24.9029 152.942 24.5394L157.742 24.6784C157.543 25.7547 157.104 26.6921 156.427 27.4904C155.757 28.2816 154.877 28.8982 153.786 29.3401C152.696 29.7749 151.434 29.9923 150.001 29.9923ZM175.707 18.274L170.906 18.4023C170.857 18.0601 170.721 17.7572 170.5 17.4934C170.279 17.2226 169.99 17.0123 169.634 16.8626C169.285 16.7058 168.879 16.6274 168.415 16.6274C167.809 16.6274 167.293 16.7486 166.865 16.9909C166.444 17.2333 166.238 17.5612 166.245 17.9746C166.238 18.2953 166.366 18.5733 166.63 18.8086C166.901 19.0438 167.382 19.2327 168.073 19.3752L171.238 19.974C172.877 20.2876 174.096 20.8079 174.894 21.535C175.7 22.262 176.106 23.2243 176.113 24.4218C176.106 25.548 175.771 26.5281 175.108 27.3621C174.453 28.1961 173.554 28.8447 172.414 29.308C171.273 29.7642 169.969 29.9923 168.501 29.9923C166.156 29.9923 164.306 29.5112 162.952 28.5489C161.604 27.5795 160.835 26.2822 160.642 24.657L165.806 24.5287C165.92 25.1275 166.216 25.5837 166.694 25.8973C167.171 26.2109 167.781 26.3677 168.522 26.3677C169.192 26.3677 169.737 26.243 170.158 25.9935C170.579 25.744 170.792 25.4126 170.799 24.9992C170.792 24.6285 170.628 24.3327 170.308 24.1117C169.987 23.8836 169.484 23.7054 168.8 23.5771L165.935 23.0319C164.288 22.7325 163.062 22.1801 162.257 21.3746C161.451 20.562 161.052 19.5285 161.059 18.274C161.052 17.1763 161.344 16.2389 161.936 15.462C162.528 14.6779 163.369 14.0792 164.459 13.6657C165.55 13.2523 166.836 13.0456 168.319 13.0456C170.543 13.0456 172.296 13.5125 173.579 14.4462C174.862 15.3729 175.572 16.6488 175.707 18.274Z" fill="white"/>
<path d="M23.3766 50.2365C48.8135 63.9241 69.1223 69.4384 94.5366 69.4384C119.951 69.4384 140.847 62.6613 166.826 50.2365" stroke="white" stroke-width="7.52711"/>
<path d="M24.5597 51.9394C21.4391 55.7747 15.8003 56.354 11.9651 53.2334C8.12989 50.1128 11.0593 44.4172 17.6154 46.2891C14.4495 40.2506 19.4305 36.2242 23.2658 39.3448C27.101 42.4654 27.6803 48.1042 24.5597 51.9394Z" fill="white"/>
<path d="M163.44 51.9394C166.561 55.7747 172.2 56.354 176.035 53.2334C179.87 50.1128 176.941 44.4172 170.385 46.2891C173.55 40.2506 168.569 36.2242 164.734 39.3448C160.899 42.4654 160.32 48.1042 163.44 51.9394Z" fill="white"/>
</svg>
