<svg width="189" height="75" viewBox="0 0 189 75" fill="none" xmlns="http://www.w3.org/2000/svg">
<path d="M12.4072 29.6822V7.78519H17.6356V16.0714H17.7425C17.9564 15.5725 18.2593 15.0913 18.6513 14.628C19.0505 14.1647 19.5566 13.7869 20.1696 13.4947C20.7897 13.1953 21.531 13.0456 22.3935 13.0456C23.534 13.0456 24.5996 13.345 25.5904 13.9437C26.5883 14.5425 27.3937 15.4655 28.0068 16.7129C28.6198 17.9603 28.9263 19.5499 28.9263 21.4815C28.9263 23.3419 28.6304 24.8994 28.0388 26.1539C27.4543 27.4084 26.6631 28.3493 25.6652 28.9766C24.6744 29.6038 23.5732 29.9175 22.3614 29.9175C21.5346 29.9175 20.8182 29.782 20.2123 29.5112C19.6065 29.2403 19.0968 28.8839 18.6834 28.442C18.2771 28 17.9635 27.526 17.7425 27.0199H17.5821V29.6822H12.4072ZM17.5287 21.4708C17.5287 22.3547 17.6463 23.1245 17.8815 23.7803C18.1239 24.4361 18.4696 24.9457 18.9186 25.3092C19.3748 25.6656 19.9201 25.8438 20.5545 25.8438C21.196 25.8438 21.7413 25.6656 22.1903 25.3092C22.6394 24.9457 22.978 24.4361 23.2061 23.7803C23.4413 23.1245 23.5589 22.3547 23.5589 21.4708C23.5589 20.587 23.4413 19.8207 23.2061 19.1721C22.978 18.5234 22.6394 18.0209 22.1903 17.6645C21.7484 17.3081 21.2031 17.1299 20.5545 17.1299C19.913 17.1299 19.3677 17.3046 18.9186 17.6538C18.4696 18.0031 18.1239 18.502 17.8815 19.1507C17.6463 19.7993 17.5287 20.5727 17.5287 21.4708ZM37.1989 29.9602C36.1511 29.9602 35.2209 29.7856 34.4083 29.4363C33.6029 29.0799 32.9649 28.5453 32.4945 27.8325C32.0312 27.1126 31.7995 26.2109 31.7995 25.1275C31.7995 24.2151 31.9599 23.4453 32.2806 22.818C32.6014 22.1908 33.0433 21.6811 33.6064 21.2891C34.1695 20.897 34.8182 20.6012 35.5524 20.4016C36.2865 20.1949 37.0706 20.0559 37.9046 19.9847C38.8383 19.8991 39.5903 19.81 40.1606 19.7174C40.7308 19.6176 41.1442 19.4786 41.4008 19.3004C41.6646 19.1151 41.7964 18.8549 41.7964 18.5199V18.4664C41.7964 17.9176 41.6075 17.4934 41.2298 17.1941C40.852 16.8947 40.3423 16.745 39.7008 16.745C39.0094 16.745 38.4534 16.8947 38.0329 17.1941C37.6123 17.4934 37.345 17.9069 37.231 18.4343L32.4089 18.2633C32.5515 17.2654 32.9186 16.3744 33.5102 15.5903C34.1089 14.7991 34.9287 14.179 35.9693 13.7299C37.0171 13.2737 38.2752 13.0456 39.7436 13.0456C40.7914 13.0456 41.7572 13.1703 42.6411 13.4198C43.525 13.6622 44.2948 14.0186 44.9505 14.489C45.6063 14.9523 46.1124 15.5226 46.4688 16.1997C46.8323 16.8769 47.0141 17.6503 47.0141 18.5199V29.6822H42.0958V27.3942H41.9675C41.6753 27.9501 41.301 28.4206 40.8449 28.8055C40.3958 29.1904 39.8648 29.4791 39.2518 29.6715C38.6459 29.864 37.9616 29.9602 37.1989 29.9602ZM38.8134 26.5388C39.3765 26.5388 39.8826 26.4248 40.3316 26.1967C40.7878 25.9686 41.1514 25.6549 41.4222 25.2558C41.6931 24.8495 41.8285 24.379 41.8285 23.8444V22.2834C41.6788 22.3618 41.4971 22.4331 41.2832 22.4973C41.0765 22.5614 40.8484 22.622 40.5989 22.679C40.3495 22.736 40.0929 22.7859 39.8291 22.8287C39.5654 22.8715 39.3123 22.9107 39.07 22.9463C38.5782 23.0247 38.1576 23.1459 37.8083 23.3098C37.4662 23.4738 37.2025 23.6876 37.0171 23.9514C36.8389 24.208 36.7498 24.5145 36.7498 24.8709C36.7498 25.4126 36.9423 25.826 37.3272 26.1111C37.7192 26.3962 38.2146 26.5388 38.8134 26.5388ZM51.1142 29.6822V13.2594H56.1929V16.2532H56.364C56.6633 15.1697 57.1516 14.3643 57.8287 13.8368C58.5059 13.3022 59.2935 13.0349 60.1917 13.0349C60.434 13.0349 60.6835 13.0527 60.9401 13.0884C61.1967 13.1169 61.4355 13.1632 61.6564 13.2274V17.7714C61.407 17.6859 61.0791 17.6182 60.6728 17.5683C60.2736 17.5184 59.9172 17.4934 59.6036 17.4934C58.9835 17.4934 58.4239 17.6324 57.925 17.9104C57.4331 18.1813 57.0447 18.5626 56.7596 19.0545C56.4816 19.5392 56.3426 20.1094 56.3426 20.7652V29.6822H51.1142ZM71.5142 29.9923C69.7963 29.9923 68.3137 29.6537 67.0663 28.9766C65.8261 28.2923 64.8709 27.3193 64.2009 26.0577C63.538 24.7889 63.2066 23.2813 63.2066 21.535C63.2066 19.8385 63.5416 18.3559 64.2116 17.0872C64.8816 15.8113 65.8261 14.8205 67.045 14.1148C68.2638 13.402 69.7001 13.0456 71.3538 13.0456C72.5228 13.0456 73.592 13.2274 74.5614 13.5909C75.5308 13.9544 76.3683 14.4926 77.074 15.2054C77.7796 15.9182 78.3285 16.7985 78.7205 17.8463C79.1126 18.887 79.3086 20.0809 79.3086 21.4281V22.7325H65.0349V19.696H74.4438C74.4366 19.14 74.3048 18.6446 74.0482 18.2098C73.7916 17.775 73.4387 17.4364 72.9897 17.1941C72.5477 16.9446 72.0381 16.8199 71.4607 16.8199C70.8762 16.8199 70.3523 16.9517 69.889 17.2155C69.4257 17.4721 69.0586 17.8249 68.7877 18.274C68.5169 18.7159 68.3743 19.2184 68.3601 19.7815V22.8715C68.3601 23.5415 68.4919 24.1296 68.7557 24.6356C69.0194 25.1346 69.3936 25.5231 69.8783 25.8011C70.363 26.0791 70.9404 26.218 71.6104 26.218C72.0737 26.218 72.4943 26.1539 72.8721 26.0256C73.2498 25.8973 73.5742 25.7084 73.845 25.4589C74.1159 25.2094 74.319 24.9029 74.4545 24.5394L79.2551 24.6784C79.0555 25.7547 78.6172 26.6921 77.94 27.4904C77.27 28.2816 76.3897 28.8982 75.2991 29.3401C74.2085 29.7749 72.9469 29.9923 71.5142 29.9923ZM82.8821 29.6822V7.78519H88.1105V16.0714H88.2174C88.4312 15.5725 88.7342 15.0913 89.1262 14.628C89.5254 14.1647 90.0315 13.7869 90.6445 13.4947C91.2646 13.1953 92.0059 13.0456 92.8684 13.0456C94.0089 13.0456 95.0745 13.345 96.0653 13.9437C97.0632 14.5425 97.8686 15.4655 98.4816 16.7129C99.0947 17.9603 99.4012 19.5499 99.4012 21.4815C99.4012 23.3419 99.1053 24.8994 98.5137 26.1539C97.9292 27.4084 97.138 28.3493 96.1401 28.9766C95.1493 29.6038 94.0481 29.9175 92.8363 29.9175C92.0095 29.9175 91.2931 29.782 90.6872 29.5112C90.0814 29.2403 89.5717 28.8839 89.1583 28.442C88.752 28 88.4384 27.526 88.2174 27.0199H88.057V29.6822H82.8821ZM88.0036 21.4708C88.0036 22.3547 88.1212 23.1245 88.3564 23.7803C88.5988 24.4361 88.9445 24.9457 89.3935 25.3092C89.8497 25.6656 90.395 25.8438 91.0294 25.8438C91.6709 25.8438 92.2162 25.6656 92.6652 25.3092C93.1143 24.9457 93.4529 24.4361 93.681 23.7803C93.9162 23.1245 94.0338 22.3547 94.0338 21.4708C94.0338 20.587 93.9162 19.8207 93.681 19.1721C93.4529 18.5234 93.1143 18.0209 92.6652 17.6645C92.2233 17.3081 91.678 17.1299 91.0294 17.1299C90.3879 17.1299 89.8426 17.3046 89.3935 17.6538C88.9445 18.0031 88.5988 18.502 88.3564 19.1507C88.1212 19.7993 88.0036 20.5727 88.0036 21.4708ZM110.71 29.9923C108.985 29.9923 107.503 29.6395 106.262 28.9338C105.029 28.221 104.078 27.2302 103.408 25.9614C102.745 24.6855 102.413 23.2065 102.413 21.5243C102.413 19.835 102.745 18.3559 103.408 17.0872C104.078 15.8113 105.029 14.8205 106.262 14.1148C107.503 13.402 108.985 13.0456 110.71 13.0456C112.435 13.0456 113.914 13.402 115.147 14.1148C116.388 14.8205 117.339 15.8113 118.002 17.0872C118.672 18.3559 119.007 19.835 119.007 21.5243C119.007 23.2065 118.672 24.6855 118.002 25.9614C117.339 27.2302 116.388 28.221 115.147 28.9338C113.914 29.6395 112.435 29.9923 110.71 29.9923ZM110.742 26.047C111.37 26.047 111.901 25.8545 112.335 25.4696C112.77 25.0847 113.102 24.5501 113.33 23.8658C113.565 23.1815 113.683 22.3903 113.683 21.4922C113.683 20.5798 113.565 19.7815 113.33 19.0972C113.102 18.413 112.77 17.8784 112.335 17.4934C111.901 17.1085 111.37 16.9161 110.742 16.9161C110.094 16.9161 109.545 17.1085 109.096 17.4934C108.654 17.8784 108.315 18.413 108.08 19.0972C107.852 19.7815 107.738 20.5798 107.738 21.4922C107.738 22.3903 107.852 23.1815 108.08 23.8658C108.315 24.5501 108.654 25.0847 109.096 25.4696C109.545 25.8545 110.094 26.047 110.742 26.047ZM127.817 20.3161V29.6822H122.589V13.2594H127.561V16.2746H127.742C128.106 15.2695 128.726 14.4819 129.603 13.9117C130.479 13.3343 131.524 13.0456 132.735 13.0456C133.89 13.0456 134.892 13.3058 135.74 13.8261C136.595 14.3393 137.258 15.0593 137.729 15.9859C138.206 16.9054 138.441 17.9817 138.434 19.2148V29.6822H133.206V20.2413C133.213 19.3289 132.981 18.6161 132.511 18.1029C132.048 17.5897 131.403 17.3331 130.576 17.3331C130.027 17.3331 129.542 17.4542 129.122 17.6966C128.708 17.9318 128.387 18.2704 128.159 18.7123C127.938 19.1543 127.824 19.6889 127.817 20.3161ZM150.251 29.9923C148.533 29.9923 147.051 29.6537 145.803 28.9766C144.563 28.2923 143.608 27.3193 142.938 26.0577C142.275 24.7889 141.944 23.2813 141.944 21.535C141.944 19.8385 142.279 18.3559 142.949 17.0872C143.619 15.8113 144.563 14.8205 145.782 14.1148C147.001 13.402 148.437 13.0456 150.091 13.0456C151.26 13.0456 152.329 13.2274 153.298 13.5909C154.268 13.9544 155.105 14.4926 155.811 15.2054C156.517 15.9182 157.066 16.7985 157.458 17.8463C157.85 18.887 158.046 20.0809 158.046 21.4281V22.7325H143.772V19.696H153.181C153.174 19.14 153.042 18.6446 152.785 18.2098C152.529 17.775 152.176 17.4364 151.727 17.1941C151.285 16.9446 150.775 16.8199 150.198 16.8199C149.613 16.8199 149.089 16.9517 148.626 17.2155C148.163 17.4721 147.796 17.8249 147.525 18.274C147.254 18.7159 147.111 19.2184 147.097 19.7815V22.8715C147.097 23.5415 147.229 24.1296 147.493 24.6356C147.756 25.1346 148.131 25.5231 148.615 25.8011C149.1 26.0791 149.677 26.218 150.347 26.218C150.811 26.218 151.231 26.1539 151.609 26.0256C151.987 25.8973 152.311 25.7084 152.582 25.4589C152.853 25.2094 153.056 24.9029 153.192 24.5394L157.992 24.6784C157.793 25.7547 157.354 26.6921 156.677 27.4904C156.007 28.2816 155.127 28.8982 154.036 29.3401C152.946 29.7749 151.684 29.9923 150.251 29.9923ZM175.957 18.274L171.156 18.4023C171.107 18.0601 170.971 17.7572 170.75 17.4934C170.529 17.2226 170.24 17.0123 169.884 16.8626C169.535 16.7058 169.129 16.6274 168.665 16.6274C168.059 16.6274 167.543 16.7486 167.115 16.9909C166.694 17.2333 166.488 17.5612 166.495 17.9746C166.488 18.2953 166.616 18.5733 166.88 18.8086C167.151 19.0438 167.632 19.2327 168.323 19.3752L171.488 19.974C173.127 20.2876 174.346 20.8079 175.144 21.535C175.95 22.262 176.356 23.2243 176.363 24.4218C176.356 25.548 176.021 26.5281 175.358 27.3621C174.703 28.1961 173.804 28.8447 172.664 29.308C171.523 29.7642 170.219 29.9923 168.751 29.9923C166.406 29.9923 164.556 29.5112 163.202 28.5489C161.854 27.5795 161.085 26.2822 160.892 24.657L166.056 24.5287C166.17 25.1275 166.466 25.5837 166.944 25.8973C167.421 26.2109 168.031 26.3677 168.772 26.3677C169.442 26.3677 169.987 26.243 170.408 25.9935C170.829 25.744 171.042 25.4126 171.049 24.9992C171.042 24.6285 170.878 24.3327 170.558 24.1117C170.237 23.8836 169.734 23.7054 169.05 23.5771L166.185 23.0319C164.538 22.7325 163.312 22.1801 162.507 21.3746C161.701 20.562 161.302 19.5285 161.309 18.274C161.302 17.1763 161.594 16.2389 162.186 15.462C162.778 14.6779 163.619 14.0792 164.709 13.6657C165.8 13.2523 167.086 13.0456 168.569 13.0456C170.793 13.0456 172.546 13.5125 173.829 14.4462C175.112 15.3729 175.822 16.6488 175.957 18.274Z" fill="black"/>
<path d="M23.6266 50.2365C49.0635 63.9241 69.3723 69.4384 94.7866 69.4384C120.201 69.4384 141.097 62.6613 167.076 50.2365" stroke="black" stroke-width="7.52711"/>
<path d="M24.8097 51.9394C21.6891 55.7747 16.0503 56.354 12.2151 53.2334C8.37989 50.1128 11.3093 44.4172 17.8654 46.2891C14.6995 40.2506 19.6805 36.2242 23.5158 39.3448C27.351 42.4654 27.9303 48.1042 24.8097 51.9394Z" fill="#050505"/>
<path d="M163.69 51.9394C166.811 55.7747 172.45 56.354 176.285 53.2334C180.12 50.1128 177.191 44.4172 170.635 46.2891C173.8 40.2506 168.819 36.2242 164.984 39.3448C161.149 42.4654 160.57 48.1042 163.69 51.9394Z" fill="#050505"/>
</svg>
